<?xml version="1.0" encoding="utf-8"?>
<!-- Generator: Adobe Illustrator 22.1.0, SVG Export Plug-In . SVG Version: 6.00 Build 0)  -->
<svg version="1.1" id="Layer_1" xmlns="http://www.w3.org/2000/svg" xmlns:xlink="http://www.w3.org/1999/xlink" x="0px" y="0px"
	 viewBox="0 0 1506.5 540.7" style="enable-background:new 0 0 1506.5 540.7;" xml:space="preserve">
<style type="text/css">
	.st0{clip-path:url(#SVGID_2_);}
	.st1{fill:#ECB32D;}
	.st2{fill:#63C1A0;}
	.st3{fill:#E01A59;}
	.st4{fill:#331433;}
	.st5{fill:#D62027;}
	.st6{fill:#89D3DF;}
	.st7{fill:#258B74;}
	.st8{fill:#819C3C;}
	.st9{fill:#303434;}
</style>
<g>
	<defs>
		<path id="SVGID_1_" d="M236.9,214.6C208.6,89.7,141.6,48.7,134.4,33c-7.9-11.1-15.9-30.8-15.9-30.8l0,0.3
			c-0.2-0.7-0.4-1.3-0.6-1.7c-0.8,11-1.2,15.3-11.7,26.5C90,39.9,6.7,109.7-0.1,251.6C-6.4,384.1,95.8,463,109.5,472.9
			c9.9,23,8.9,62.4,8.9,62.4l14.5,4.8c0,0-2.9-38.2,1.2-56.7c1.2-5.6,4.1-10.5,7.5-14.6c2.2-1.6,8.8-6.3,17.7-14.4
			c0.4-0.2,0.6-0.3,0.6-0.3c0-0.1,0-0.2,0-0.2C193.7,422.6,259.1,343.7,236.9,214.6z"/>
	</defs>
	<clipPath id="SVGID_2_">
		<use xlink:href="#SVGID_1_"  style="overflow:visible;"/>
	</clipPath>
	<g class="st0">
		<path class="st1" d="M156.9-110.1C142-154.8,94.2-179.1,49.4-165C4.7-150.1-19.6-102.2-5.5-57.5l220.5,678
			c14.9,41.6,60.4,65.1,103.6,52.6c45.5-13.3,73-61.2,58.1-105.2C376.7,566.4,156.9-110.1,156.9-110.1z"/>
		<path class="st2" d="M-5.2-57.8c-14.9-44.7-62.8-69.1-107.5-54.9C-157.4-97.8-181.7-50-167.6-5.2l220.5,678
			c14.9,41.6,60.4,65.1,103.6,52.6c45.5-13.3,73-61.2,58.1-105.2C214.5,618.6-5.2-57.8-5.2-57.8z"/>
		<path class="st3" d="M555.6,213.9c44.7-14.9,69.1-62.8,54.9-107.5C595.6,61.6,547.7,37.3,503,51.4l-678.8,221.3
			c-41.6,14.9-65.1,60.4-52.6,103.6c13.3,45.5,61.2,73,105.2,58.1C-121.6,434.4,555.6,213.9,555.6,213.9z"/>
		<path class="st4" d="M-34.5,406.1c43.9-14.1,101.2-33,162.4-52.6c-14.1-43.9-33-101.2-52.6-162.4l-162.4,52.6L-34.5,406.1z"/>
		<path class="st5" d="M129.4,352.1c61.2-19.6,118.5-38.5,162.4-52.6c-14.1-43.9-33-101.2-52.6-162.4L76.8,189.7L129.4,352.1z"/>
		<path class="st6" d="M501.5,52.3c44.7-14.9,69.1-62.8,54.9-107.5c-14.9-44.7-62.8-69.1-107.5-54.9l-678,220.5
			c-41.6,14.9-65.1,60.4-52.6,103.6c13.3,45.5,61.2,73,105.2,58.1C-174.9,272,501.5,52.3,501.5,52.3z"/>
		<path class="st7" d="M-87.8,243.7c43.9-14.1,101.2-33,162.4-52.6C55,130,36.2,72.7,22.1,28.7l-162.4,52.6L-87.8,243.7z"/>
		<path class="st8" d="M75.3,190.5c61.2-19.6,118.5-38.5,162.4-52.6c-19.6-61.2-38.5-118.5-52.6-162.4L22.8,28.1L75.3,190.5z"/>
	</g>
</g>
<g>
	<path class="st9" d="M417.7,191.7v30.2h47.1v20.5h-47.1v59.7c0,4.7,0.6,8.6,1.7,11.6c1.1,3.1,2.7,5.5,4.7,7.4c2,1.8,4.3,3.1,7,3.9
		c2.7,0.7,5.6,1.1,8.9,1.1c2.4,0,4.9-0.1,7.4-0.4c2.6-0.3,5.1-0.6,7.5-0.9c2.4-0.3,4.6-0.7,6.7-1.2c2-0.4,3.7-0.8,5.1-1.2l3.1,19
		c-2,1.2-4.4,2.2-7.2,3.2c-2.8,1-5.9,1.7-9.1,2.4c-3.3,0.6-6.7,1.1-10.3,1.4c-3.6,0.3-7.1,0.5-10.5,0.5c-6.2,0-11.9-0.9-17.1-2.6
		s-9.6-4.4-13.4-8.1c-3.7-3.6-6.6-8.3-8.7-14c-2.1-5.7-3.2-12.6-3.2-20.5v-61.2h-30.4v-20.5h30.4v-30.2H417.7z"/>
	<path class="st9" d="M500.6,221.8H567v101.7h36.9v22.8H500.6v-22.8h38.7v-78.8h-38.7V221.8z M536.9,189.6c0-4.3,1.4-7.8,4.1-10.6
		c2.8-2.8,6.6-4.2,11.6-4.2c5.1,0,9,1.4,11.8,4.2c2.8,2.8,4.2,6.3,4.2,10.6c0,4.3-1.4,7.8-4.2,10.6c-2.8,2.8-6.7,4.2-11.8,4.2
		c-5,0-8.9-1.4-11.6-4.2C538.3,197.5,536.9,193.9,536.9,189.6z"/>
	<path class="st9" d="M651.5,221.8l1.7,17.3c4.5-6.2,10-11,16.4-14.4c6.4-3.4,13.5-5.1,21.3-5.1c6.4,0,12.2,0.9,17.4,2.8
		c5.3,1.8,9.8,4.7,13.6,8.6s6.8,9,8.9,15.2c2.1,6.2,3.2,13.7,3.2,22.4v77.8h-27.5V269c0-5.1-0.6-9.4-1.8-12.9
		c-1.2-3.5-2.9-6.2-5.1-8.3c-2.2-2.1-4.9-3.5-8-4.4c-3.1-0.9-6.7-1.3-10.7-1.3c-6.1,0-11.3,1.3-15.8,4c-4.5,2.7-8.1,6.3-10.9,10.9
		v89.3h-27.6V221.8H651.5z"/>
	<path class="st9" d="M808,296.5l4.7,15l35-89.7h30.5l-63.1,143.4c-1.4,3.1-3.2,6.5-5.4,10.2c-2.2,3.6-5,7-8.2,10.2
		c-3.3,3.1-7.2,5.8-11.7,7.9c-4.5,2.1-9.8,3.2-15.9,3.2c-2.5,0-5.1-0.2-7.7-0.6c-2.6-0.4-4.9-0.9-6.8-1.4l3.9-21.4
		c0.5,0,1.3,0,2.2,0.1c0.9,0,1.9,0.1,2.9,0.2c1,0.1,1.9,0.1,2.8,0.2c0.9,0,1.6,0.1,2.1,0.1c2.7,0,5.1-0.8,7.2-2.4
		c2.1-1.6,4-3.4,5.6-5.4c1.6-2,2.9-4,4-6c1-2,1.8-3.3,2.2-4l8.2-15.4l-52.9-118.7H778L808,296.5z"/>
	<path class="st9" d="M967.1,312.7c0-2.1-0.4-4-1.3-5.7c-0.8-1.7-2.4-3.3-4.5-4.7c-2.2-1.4-5.2-2.7-9-4c-3.8-1.2-8.7-2.4-14.6-3.6
		c-7.4-1.5-14-3.4-20-5.5c-5.9-2.1-11-4.7-15.3-7.7c-4.3-3-7.5-6.5-9.8-10.4c-2.3-4-3.5-8.5-3.5-13.8c0-5.1,1.2-9.9,3.6-14.4
		c2.4-4.6,5.8-8.6,10.2-12c4.4-3.5,9.8-6.2,16.1-8.2c6.3-2,13.4-3,21.2-3c8.3,0,15.7,1,22.3,3.1c6.6,2.1,12.1,4.9,16.6,8.5
		c4.5,3.6,8,7.8,10.4,12.6s3.6,10,3.6,15.5h-27.5c0-2.5-0.5-4.8-1.6-7.1c-1.1-2.3-2.7-4.3-4.8-6c-2.1-1.8-4.8-3.2-8-4.2
		c-3.2-1-6.8-1.6-11-1.6c-4.1,0-7.7,0.4-10.8,1.3c-3,0.9-5.5,2-7.5,3.5c-2,1.4-3.5,3.1-4.4,5c-1,1.9-1.4,3.9-1.4,6
		c0,2.1,0.4,4,1.1,5.6c0.7,1.7,2.1,3.2,4.1,4.6c2,1.4,4.8,2.6,8.3,3.7c3.5,1.1,8.1,2.2,13.7,3.2c7.8,1.4,14.9,3.1,21.1,5.2
		c6.3,2.1,11.6,4.6,16,7.6c4.4,3,7.8,6.5,10.2,10.6c2.4,4.1,3.6,8.9,3.6,14.4s-1.3,10.6-3.8,15.2s-6.1,8.6-10.8,11.9
		c-4.7,3.3-10.3,5.9-16.9,7.8c-6.6,1.8-13.9,2.8-22,2.8c-9.1,0-17-1.2-23.9-3.6c-6.9-2.4-12.7-5.6-17.4-9.5
		c-4.7-3.9-8.2-8.4-10.6-13.4c-2.4-5-3.6-10-3.6-15.2h26.7c0.2,3.8,1.2,7.1,3,9.8c1.8,2.7,4,4.9,6.8,6.5c2.8,1.7,5.8,2.8,9.2,3.6
		c3.4,0.7,6.8,1.1,10.2,1.1c8.5,0,15-1.4,19.5-4.3C964.8,320.9,967.1,317.2,967.1,312.7z"/>
	<path class="st9" d="M1008.9,169.6h67.3v154h38v22.8h-105.3v-22.8h39.6V192.5h-39.6V169.6z"/>
	<path class="st9" d="M1210.5,346.4c-0.8-1.5-1.4-3.3-1.9-5.4c-0.5-2.1-0.9-4.3-1.3-6.7c-1.9,2-4.1,3.9-6.5,5.6
		c-2.4,1.7-5.1,3.2-8.1,4.5c-3,1.3-6.1,2.3-9.6,3.1c-3.4,0.8-7.1,1.2-11,1.2c-6.6,0-12.6-0.9-17.9-2.8c-5.3-1.9-9.9-4.5-13.7-7.8
		c-3.8-3.3-6.7-7.3-8.8-11.8c-2.1-4.5-3.1-9.4-3.1-14.7c0-13.3,5-23.6,14.9-30.6c9.9-7.1,24.2-10.6,42.8-10.6h20.1v-8.2
		c0-6.6-2.2-11.8-6.7-15.7c-4.5-3.9-10.7-5.8-18.9-5.8c-3.7,0-6.9,0.4-9.7,1.3c-2.8,0.9-5.1,2.1-6.9,3.6c-1.8,1.5-3.2,3.3-4.1,5.4
		s-1.4,4.3-1.4,6.7h-27.5c0-4.8,1.1-9.5,3.4-14.1c2.3-4.6,5.6-8.6,10-12.2s9.7-6.4,16.1-8.6c6.3-2.1,13.6-3.2,21.7-3.2
		c7.4,0,14.2,0.9,20.5,2.7c6.3,1.8,11.7,4.5,16.3,8.1s8.2,8,10.8,13.4c2.6,5.3,3.9,11.6,3.9,18.7v55.5c0,5.4,0.4,10.4,1.2,14.9
		s2,8.4,3.5,11.7v2H1210.5z M1177.4,326.5c3.5,0,6.8-0.4,10-1.3c3.1-0.9,5.9-2,8.4-3.5c2.5-1.4,4.6-3,6.4-4.9
		c1.8-1.8,3.2-3.7,4.3-5.6v-23.4H1189c-11.2,0-19.5,1.8-24.8,5.4c-5.3,3.6-8,8.7-8,15.4c0,2.5,0.4,4.9,1.3,7.1
		c0.8,2.2,2.1,4.1,3.9,5.6c1.7,1.6,3.9,2.8,6.6,3.7C1170.5,326,1173.7,326.5,1177.4,326.5z"/>
	<path class="st9" d="M1317.6,326.8c3.4,0,6.7-0.5,9.8-1.6c3.2-1.1,6-2.6,8.5-4.5c2.5-1.9,4.4-4.2,5.8-6.8c1.4-2.6,2.1-5.4,2-8.5h26
		c0.1,6-1.3,11.6-4.1,16.9c-2.8,5.3-6.6,9.8-11.4,13.8c-4.8,3.9-10.3,7-16.6,9.3c-6.3,2.3-12.9,3.5-19.8,3.5c-9.6,0-18-1.7-25.2-4.9
		s-13.2-7.8-18.1-13.5c-4.8-5.7-8.5-12.4-10.9-19.9c-2.4-7.6-3.6-15.6-3.6-24.1v-4.1c0-8.5,1.2-16.6,3.6-24.2s6-14.2,10.9-19.9
		c4.8-5.7,10.9-10.2,18.1-13.5s15.6-5,25.1-5c7.5,0,14.5,1.2,20.9,3.5c6.4,2.3,11.9,5.5,16.6,9.7c4.6,4.1,8.2,9.1,10.8,14.8
		c2.6,5.8,3.8,12,3.7,18.9h-26c0.1-3.4-0.5-6.6-1.8-9.6c-1.3-3-3.1-5.6-5.5-7.8c-2.4-2.2-5.2-4-8.4-5.3c-3.2-1.3-6.8-2-10.6-2
		c-5.8,0-10.5,1.2-14.4,3.5c-3.8,2.3-6.9,5.4-9.2,9.2c-2.3,3.8-3.9,8.1-4.9,12.9c-1,4.8-1.4,9.7-1.4,14.7v4.1c0,5.1,0.5,10,1.4,14.8
		c1,4.8,2.6,9.1,4.9,12.9s5.4,6.9,9.2,9.2C1306.9,325.6,1311.7,326.8,1317.6,326.8z"/>
	<path class="st9" d="M1433,291.9l-15,14.3v40.2h-27.5V169.6h27.5v104.2l11.6-13l36.6-38.9h33.1l-48.1,51.8l55.5,72.7h-34.3
		L1433,291.9z"/>
</g>
</svg>
